<svg id="Layer_1" data-name="Layer 1" xmlns="http://www.w3.org/2000/svg" xmlns:xlink="http://www.w3.org/1999/xlink" viewBox="0 0 1064 890.68"><defs><style>.cls-1,.cls-57{fill:none;}.cls-2,.cls-3,.cls-4{opacity:0.1;}.cls-2{fill:url(#linear-gradient);}.cls-3{fill:url(#linear-gradient-2);}.cls-4{fill:url(#linear-gradient-3);}.cls-5{fill:url(#linear-gradient-4);}.cls-6{fill:url(#linear-gradient-5);}.cls-7{fill:url(#linear-gradient-6);}.cls-8{fill:url(#linear-gradient-7);}.cls-33,.cls-35,.cls-36,.cls-9{opacity:0.22;}.cls-9{fill:url(#linear-gradient-8);}.cls-10{fill:url(#linear-gradient-9);}.cls-11{fill:url(#linear-gradient-10);}.cls-12{fill:url(#linear-gradient-11);}.cls-13{fill:url(#linear-gradient-12);}.cls-14{fill:url(#linear-gradient-13);}.cls-15{fill:url(#linear-gradient-14);}.cls-16{fill:url(#linear-gradient-15);}.cls-17{fill:url(#linear-gradient-16);}.cls-18{fill:url(#linear-gradient-17);}.cls-19{fill:url(#linear-gradient-18);}.cls-20{fill:url(#linear-gradient-19);}.cls-21{fill:url(#linear-gradient-20);}.cls-22{fill:url(#linear-gradient-21);}.cls-23{fill:url(#linear-gradient-22);}.cls-24{fill:url(#linear-gradient-23);}.cls-25{fill:url(#linear-gradient-24);}.cls-26{fill:url(#linear-gradient-25);}.cls-27{fill:url(#linear-gradient-26);}.cls-28{fill:url(#linear-gradient-27);}.cls-29{fill:url(#linear-gradient-28);}.cls-30{fill:url(#linear-gradient-29);}.cls-31{fill:url(#linear-gradient-30);}.cls-32{fill:url(#linear-gradient-31);}.cls-33{fill:url(#linear-gradient-32);}.cls-34{fill:#fff;}.cls-35,.cls-36,.cls-39,.cls-45,.cls-56{fill:#f93;}.cls-36,.cls-39,.cls-45{isolation:isolate;}.cls-37{fill:#331f0a;}.cls-38{fill:url(#linear-gradient-33);}.cls-39{opacity:0.62;}.cls-40{fill:url(#linear-gradient-34);}.cls-41{fill:url(#linear-gradient-35);}.cls-42{fill:url(#linear-gradient-36);}.cls-43{fill:url(#linear-gradient-37);}.cls-44{fill:url(#linear-gradient-38);}.cls-46{fill:url(#linear-gradient-39);}.cls-47{fill:url(#linear-gradient-40);}.cls-48{fill:url(#linear-gradient-41);}.cls-49{fill:url(#linear-gradient-42);}.cls-50{fill:url(#linear-gradient-43);}.cls-51{fill:url(#linear-gradient-44);}.cls-52{fill:url(#linear-gradient-45);}.cls-53{fill:url(#linear-gradient-47);}.cls-54{fill:#ff6a00;}.cls-55{fill:#ffb14a;}.cls-57{stroke:#f93;stroke-linecap:round;stroke-linejoin:round;stroke-width:0;}.cls-58{fill:#663d14;}</style><linearGradient id="linear-gradient" x1="-1528.03" y1="992.18" x2="1077.86" y2="992.18" gradientUnits="userSpaceOnUse"><stop offset="0" stop-color="#f26b21"/><stop offset="1" stop-color="#ff6a00"/></linearGradient><linearGradient id="linear-gradient-2" x1="-1528.03" y1="1004.56" x2="1077.86" y2="1004.56" xlink:href="#linear-gradient"/><linearGradient id="linear-gradient-3" x1="-1528.03" y1="1008.13" x2="1077.86" y2="1008.13" xlink:href="#linear-gradient"/><linearGradient id="linear-gradient-4" x1="-358.41" y1="853.97" x2="807.12" y2="853.97" xlink:href="#linear-gradient"/><linearGradient id="linear-gradient-5" x1="-236.99" y1="854.47" x2="684.4" y2="854.47" xlink:href="#linear-gradient"/><linearGradient id="linear-gradient-6" x1="-350.67" y1="853.83" x2="800.21" y2="853.83" xlink:href="#linear-gradient"/><linearGradient id="linear-gradient-7" x1="-307.73" y1="854.19" x2="755.74" y2="854.19" xlink:href="#linear-gradient"/><linearGradient id="linear-gradient-8" x1="-1528.03" y1="630.23" x2="1077.86" y2="630.23" xlink:href="#linear-gradient"/><linearGradient id="linear-gradient-9" x1="-1528.03" y1="857.01" x2="1077.86" y2="857.01" xlink:href="#linear-gradient"/><linearGradient id="linear-gradient-10" x1="-151.05" y1="854.81" x2="597.97" y2="854.81" xlink:href="#linear-gradient"/><linearGradient id="linear-gradient-11" x1="-1528.03" y1="825.94" x2="1077.86" y2="825.94" xlink:href="#linear-gradient"/><linearGradient id="linear-gradient-12" x1="169.76" y1="865.34" x2="200.52" y2="865.34" xlink:href="#linear-gradient"/><linearGradient id="linear-gradient-13" x1="-1528.03" y1="834.89" x2="1077.86" y2="834.89" xlink:href="#linear-gradient"/><linearGradient id="linear-gradient-14" x1="-1528.03" y1="864.47" x2="1077.86" y2="864.47" xlink:href="#linear-gradient"/><linearGradient id="linear-gradient-15" x1="260.58" y1="838.21" x2="444.19" y2="838.21" xlink:href="#linear-gradient"/><linearGradient id="linear-gradient-16" x1="-1528.03" y1="820.95" x2="1077.86" y2="820.95" xlink:href="#linear-gradient"/><linearGradient id="linear-gradient-17" x1="-1528.03" y1="838.47" x2="1077.86" y2="838.47" xlink:href="#linear-gradient"/><linearGradient id="linear-gradient-18" x1="-1528.03" y1="710.88" x2="1077.86" y2="710.88" xlink:href="#linear-gradient"/><linearGradient id="linear-gradient-19" x1="-1528.03" y1="856.95" x2="1077.86" y2="856.95" xlink:href="#linear-gradient"/><linearGradient id="linear-gradient-20" x1="-1528.03" y1="698.87" x2="1077.86" y2="698.87" xlink:href="#linear-gradient"/><linearGradient id="linear-gradient-21" x1="-1528.03" y1="844.97" x2="1077.86" y2="844.97" xlink:href="#linear-gradient"/><linearGradient id="linear-gradient-22" x1="-196.81" y1="856.87" x2="643.52" y2="856.87" xlink:href="#linear-gradient"/><linearGradient id="linear-gradient-23" x1="-36.05" y1="856.47" x2="482.51" y2="856.47" xlink:href="#linear-gradient"/><linearGradient id="linear-gradient-24" x1="-20.11" y1="855.18" x2="466.7" y2="855.18" xlink:href="#linear-gradient"/><linearGradient id="linear-gradient-25" x1="130.9" y1="856.04" x2="315.47" y2="856.04" xlink:href="#linear-gradient"/><linearGradient id="linear-gradient-26" x1="-1528.03" y1="857.23" x2="-342.97" y2="857.23" xlink:href="#linear-gradient"/><linearGradient id="linear-gradient-27" x1="137.27" y1="855.6" x2="309.15" y2="855.6" xlink:href="#linear-gradient"/><linearGradient id="linear-gradient-28" x1="-1528.03" y1="857.96" x2="566.21" y2="857.96" xlink:href="#linear-gradient"/><linearGradient id="linear-gradient-29" x1="-1528.03" y1="857.78" x2="241.02" y2="857.78" xlink:href="#linear-gradient"/><linearGradient id="linear-gradient-30" x1="-1528.03" y1="857.54" x2="-35.84" y2="857.54" xlink:href="#linear-gradient"/><linearGradient id="linear-gradient-31" x1="-1528.03" y1="858.07" x2="1077.86" y2="858.07" xlink:href="#linear-gradient"/><linearGradient id="linear-gradient-32" x1="132.64" y1="434.24" x2="204.98" y2="434.24" xlink:href="#linear-gradient"/><linearGradient id="linear-gradient-33" x1="-1528.03" y1="894.91" x2="1077.86" y2="894.91" xlink:href="#linear-gradient"/><linearGradient id="linear-gradient-34" x1="-1528.03" y1="888.5" x2="1077.86" y2="888.5" xlink:href="#linear-gradient"/><linearGradient id="linear-gradient-35" x1="-1528.03" y1="894.58" x2="1077.86" y2="894.58" xlink:href="#linear-gradient"/><linearGradient id="linear-gradient-36" x1="-1528.03" y1="892.05" x2="1077.86" y2="892.05" xlink:href="#linear-gradient"/><linearGradient id="linear-gradient-37" x1="-1528.03" y1="891" x2="1077.86" y2="891" xlink:href="#linear-gradient"/><linearGradient id="linear-gradient-38" x1="-1528.03" y1="886.02" x2="1077.86" y2="886.02" xlink:href="#linear-gradient"/><linearGradient id="linear-gradient-39" x1="-1528.03" y1="886.57" x2="1077.86" y2="886.57" xlink:href="#linear-gradient"/><linearGradient id="linear-gradient-40" x1="-1528.03" y1="887.43" x2="1077.86" y2="887.43" xlink:href="#linear-gradient"/><linearGradient id="linear-gradient-41" x1="-1528.03" y1="887.56" x2="1077.86" y2="887.56" xlink:href="#linear-gradient"/><linearGradient id="linear-gradient-42" x1="-1528.03" y1="887.96" x2="1077.86" y2="887.96" xlink:href="#linear-gradient"/><linearGradient id="linear-gradient-43" x1="-1528.03" y1="894.55" x2="1077.86" y2="894.55" xlink:href="#linear-gradient"/><linearGradient id="linear-gradient-44" x1="-1528.03" y1="712.33" x2="1077.86" y2="712.33" xlink:href="#linear-gradient"/><linearGradient id="linear-gradient-45" x1="-1528.03" y1="890.83" x2="1077.86" y2="890.83" xlink:href="#linear-gradient"/><linearGradient id="linear-gradient-47" x1="-1528.03" y1="891.18" x2="1077.86" y2="891.18" xlink:href="#linear-gradient"/></defs><path class="cls-1" d="M622.19,1055l-.24.21c.16.08.33.15.49.24Z" transform="translate(0 -173.32)"/><path class="cls-1" d="M603.78,992.92a1.14,1.14,0,0,0-.66,1.63C603.32,994,603.54,993.45,603.78,992.92Z" transform="translate(0 -173.32)"/><path class="cls-1" d="M669.4,1003.52a5.5,5.5,0,0,1-.24-.58l-.17.33a3.59,3.59,0,0,0,.33.25Z" transform="translate(0 -173.32)"/><path class="cls-1" d="M627.74,1022.43l-.11-.13c0,.06,0,.1.06.15Z" transform="translate(0 -173.32)"/><path class="cls-1" d="M637.17,992.89l0-.29h0l-.13.06h0A2.39,2.39,0,0,1,637.17,992.89Z" transform="translate(0 -173.32)"/><path class="cls-1" d="M583.83,992.64v0h0Z" transform="translate(0 -173.32)"/><path class="cls-1" d="M63.58,988.14c0,.22,0,.42,0,.61a3.64,3.64,0,0,1,.28-.47Z" transform="translate(0 -173.32)"/><path class="cls-1" d="M101.28,961.33a2.06,2.06,0,0,0,1.19-.61,28.37,28.37,0,0,1-2.92-1.13l.3.41C100.22,960.54,100.76,961.29,101.28,961.33Z" transform="translate(0 -173.32)"/><path class="cls-1" d="M584,995.41c.44-.39.52-1.19-.12-2.73h-.25A5.58,5.58,0,0,1,584,995.41Z" transform="translate(0 -173.32)"/><path class="cls-1" d="M39.6,1042.35l.06-.33a10.11,10.11,0,0,0-1.33.38A3.41,3.41,0,0,1,39.6,1042.35Z" transform="translate(0 -173.32)"/><path class="cls-1" d="M125,989.68l-.22,0,0,.1Z" transform="translate(0 -173.32)"/><path class="cls-1" d="M109.76,1006.69l.11-.05-.2-.14c0-.06-.09-.11-.13-.16v0h0C109.61,1006.48,109.68,1006.59,109.76,1006.69Z" transform="translate(0 -173.32)"/><path class="cls-1" d="M915.56,844.38l-1.37.73a13.11,13.11,0,0,1,1.58,0A7.7,7.7,0,0,1,915.56,844.38Z" transform="translate(0 -173.32)"/><path class="cls-1" d="M297.36,681.83a10.31,10.31,0,0,0,1-1.06A1.31,1.31,0,0,0,297.36,681.83Z" transform="translate(0 -173.32)"/><path class="cls-1" d="M859.06,840.66l-.07-.11h0l0,0-.28.22.13,0Z" transform="translate(0 -173.32)"/><path class="cls-1" d="M551.7,618.12l.4,1.11A7.06,7.06,0,0,0,551.7,618.12Z" transform="translate(0 -173.32)"/><path class="cls-1" d="M674.87,1003.22c.17-.28-.13-.43,0,0Z" transform="translate(0 -173.32)"/><path class="cls-1" d="M863.61,881.59l-.09-.1a.61.61,0,0,0,.07.1Z" transform="translate(0 -173.32)"/><path class="cls-1" d="M858.54,840.89l-.24.13a3.61,3.61,0,0,0,.42-.16Z" transform="translate(0 -173.32)"/><path class="cls-1" d="M571.68,994.31l-.07-.08-.06,0,.15.16S571.69,994.35,571.68,994.31Z" transform="translate(0 -173.32)"/><path class="cls-1" d="M179.46,723.49l.12,0-.06-.17Z" transform="translate(0 -173.32)"/><path class="cls-1" d="M179.43,723.5h0l-.05,0Z" transform="translate(0 -173.32)"/><path class="cls-1" d="M283.52,1055.21a3.62,3.62,0,0,0-.67-.62,9.9,9.9,0,0,1,.83,2.08C284,1056.41,284.12,1056,283.52,1055.21Z" transform="translate(0 -173.32)"/><path class="cls-1" d="M331.82,1022.43c-1.34-.84-3.17-1.14-4.15.34A9.09,9.09,0,0,1,331.82,1022.43Z" transform="translate(0 -173.32)"/><path class="cls-1" d="M259.9,968.63l-.24-.21c-.25,1.57,1.13,2.5,1.78,3.72C261.07,970.91,259.84,970.14,259.9,968.63Z" transform="translate(0 -173.32)"/><polygon class="cls-1" points="282.84 866.49 282.84 866.49 282.84 866.49 282.84 866.49"/><path class="cls-1" d="M282.82,1039.8a0,0,0,0,1,0,0l0,0Z" transform="translate(0 -173.32)"/><path class="cls-1" d="M275.2,1032.19s0,.06,0,.09l0-.08Z" transform="translate(0 -173.32)"/><path class="cls-1" d="M293.58,1024.63l-.12.12v0l.14-.16Z" transform="translate(0 -173.32)"/><path class="cls-1" d="M177.94,1062.62a.5.5,0,0,1-.05.13l.2-.1-.13,0Z" transform="translate(0 -173.32)"/><path class="cls-1" d="M329.87,969.24l.37-.28C330,968.86,329.86,969,329.87,969.24Z" transform="translate(0 -173.32)"/><path class="cls-1" d="M377.27,1020h-.18s.08.07.11.11A.75.75,0,0,0,377.27,1020Z" transform="translate(0 -173.32)"/><path class="cls-1" d="M360.59,954.76l-.22.09h0Z" transform="translate(0 -173.32)"/><path class="cls-1" d="M343.35,989.69c.17-.47.37-1,.58-1.44A1.68,1.68,0,0,0,343.35,989.69Z" transform="translate(0 -173.32)"/><path class="cls-1" d="M178.2,1008.65c-.3,0-.59-.09-.87-.11a6.26,6.26,0,0,0,0,.63A4.77,4.77,0,0,1,178.2,1008.65Z" transform="translate(0 -173.32)"/><path class="cls-1" d="M145.11,1024.23a11.25,11.25,0,0,0,0,2.09C145.58,1025.47,146,1024.66,145.11,1024.23Z" transform="translate(0 -173.32)"/><path class="cls-1" d="M158.24,1032.09l-.06.11h.14A.44.44,0,0,1,158.24,1032.09Z" transform="translate(0 -173.32)"/><polygon class="cls-1" points="158.18 858.88 158.17 858.88 158.18 858.89 158.18 858.88"/><path class="cls-1" d="M202.26,983.56h0a2.4,2.4,0,0,1-.28-.27,1,1,0,0,1-.08.11l.35.21Z" transform="translate(0 -173.32)"/><path class="cls-1" d="M134.88,984.23c.06-.12.12-.24.19-.36a4.68,4.68,0,0,1-1.07-.3l.24.22A5.5,5.5,0,0,1,134.88,984.23Z" transform="translate(0 -173.32)"/><path class="cls-1" d="M126.71,994.79c-.13-.13-.27-.27-.43-.41l-.12-.14h0a3.07,3.07,0,0,1,.3.69C126.54,994.89,126.62,994.83,126.71,994.79Z" transform="translate(0 -173.32)"/><path class="cls-1" d="M179.43,1059.56l0,0,.05,0Z" transform="translate(0 -173.32)"/><path class="cls-1" d="M179.58,1059.54l-.12,0,.06.13Z" transform="translate(0 -173.32)"/><path class="cls-1" d="M163.78,972a5.8,5.8,0,0,1-.19.59l.54-.54C164.19,972,164,972,163.78,972Z" transform="translate(0 -173.32)"/><path class="cls-1" d="M124.71,989.61l0,0h.06Z" transform="translate(0 -173.32)"/><polygon class="cls-1" points="158.21 854.37 158.2 854.37 158.2 854.37 158.21 854.37"/><polygon class="cls-1" points="158.2 582.05 158.21 582.05 158.2 582.05 158.2 582.05"/><path class="cls-1" d="M331.82,760.62a9,9,0,0,1-4.15-.34C328.65,761.77,330.48,761.46,331.82,760.62Z" transform="translate(0 -173.32)"/><path class="cls-1" d="M343.93,794.81c-.21-.49-.41-1-.58-1.44A1.68,1.68,0,0,0,343.93,794.81Z" transform="translate(0 -173.32)"/><path class="cls-1" d="M472.45,503.26c-.22.15-.44.27-.66.41a2,2,0,0,1,.37.39C472.26,503.81,472.36,503.54,472.45,503.26Z" transform="translate(0 -173.32)"/><path class="cls-1" d="M674.87,779.84c-.13.42.17.28,0,0Z" transform="translate(0 -173.32)"/><path class="cls-1" d="M283.52,727.85c.6-.76.52-1.21.16-1.47a9.68,9.68,0,0,1-.83,2.08A3.55,3.55,0,0,0,283.52,727.85Z" transform="translate(0 -173.32)"/><path class="cls-1" d="M377.2,762.91s-.08.07-.11.11h.18A.75.75,0,0,0,377.2,762.91Z" transform="translate(0 -173.32)"/><path class="cls-1" d="M293.58,758.43h0l-.14-.16v0Z" transform="translate(0 -173.32)"/><path class="cls-1" d="M202.28,799.51h0v0l-.35.2.08.12A1.79,1.79,0,0,1,202.28,799.51Z" transform="translate(0 -173.32)"/><polygon class="cls-1" points="282.84 569.93 282.84 569.93 282.84 569.93 282.84 569.93"/><path class="cls-1" d="M275.23,750.85a.43.43,0,0,1,0-.07s0,.06,0,.08Z" transform="translate(0 -173.32)"/><path class="cls-1" d="M282.83,743.25l0,0a0,0,0,0,1,0,0Z" transform="translate(0 -173.32)"/><path class="cls-1" d="M631.9,856.66l-.32-.21a3.79,3.79,0,0,1,.06.38C631.73,856.76,631.81,856.72,631.9,856.66Z" transform="translate(0 -173.32)"/><path class="cls-1" d="M583.84,790.38c.64-1.55.56-2.35.12-2.74a5.6,5.6,0,0,1-.37,2.74Z" transform="translate(0 -173.32)"/><path class="cls-1" d="M627.69,760.6l-.06.15.11-.12Z" transform="translate(0 -173.32)"/><path class="cls-1" d="M596,676.37l-.16-.18-.08,0,.22.2Z" transform="translate(0 -173.32)"/><path class="cls-1" d="M603.78,790.14c-.24-.53-.46-1.07-.66-1.63A1.14,1.14,0,0,0,603.78,790.14Z" transform="translate(0 -173.32)"/><path class="cls-1" d="M583.89,790.37h0v0Z" transform="translate(0 -173.32)"/><path class="cls-1" d="M534.88,848.11c0,.06,0,.11-.08.16l.33,0Z" transform="translate(0 -173.32)"/><path class="cls-1" d="M622.44,727.57c-.16.09-.32.16-.49.24.08.07.17.13.24.2Z" transform="translate(0 -173.32)"/><path class="cls-1" d="M541.94,714.27l-.21-.32c.07.25.15.48.22.71C542.08,714.61,542.09,714.49,541.94,714.27Z" transform="translate(0 -173.32)"/><path class="cls-1" d="M548.92,870a2.09,2.09,0,0,0-.84-.5c.28.37.53.72.74,1C548.85,870.36,548.9,870.2,548.92,870Z" transform="translate(0 -173.32)"/><path class="cls-1" d="M192.87,664.57a12.19,12.19,0,0,1-1.26,1.16l1.59-.1C193.08,665.29,193,664.93,192.87,664.57Z" transform="translate(0 -173.32)"/><path class="cls-1" d="M571.68,788.75s0-.08,0-.12l-.15.16.06,0Z" transform="translate(0 -173.32)"/><path class="cls-1" d="M550.44,716.37a1.49,1.49,0,0,0,0,1.43A13.38,13.38,0,0,1,550.44,716.37Z" transform="translate(0 -173.32)"/><path class="cls-1" d="M626.6,666.55l-1.31-.1c0,.07.07.14.11.22Z" transform="translate(0 -173.32)"/><path class="cls-1" d="M13.81,719.09a2.6,2.6,0,0,0-1-.77Z" transform="translate(0 -173.32)"/><path class="cls-1" d="M163.59,810.45c.07.2.14.4.19.6.24,0,.41,0,.35-.06Z" transform="translate(0 -173.32)"/><polygon class="cls-1" points="158.17 577.53 158.18 577.53 158.18 577.53 158.17 577.53"/><path class="cls-1" d="M145.11,758.83c.85-.43.47-1.25,0-2.09A11.25,11.25,0,0,0,145.11,758.83Z" transform="translate(0 -173.32)"/><path class="cls-1" d="M177.33,774.52c.28,0,.57-.06.87-.11a4.77,4.77,0,0,1-.83-.52A6.07,6.07,0,0,0,177.33,774.52Z" transform="translate(0 -173.32)"/><path class="cls-1" d="M648.62,847.55l0,.06h0Z" transform="translate(0 -173.32)"/><path class="cls-1" d="M178,720.44l.13,0-.2-.1a.61.61,0,0,1,.05.12Z" transform="translate(0 -173.32)"/><path class="cls-1" d="M669.4,779.54h-.08a3.59,3.59,0,0,0-.33.25l.17.32A5.37,5.37,0,0,1,669.4,779.54Z" transform="translate(0 -173.32)"/><path class="cls-1" d="M674.64,871.9l.22.11c0-.19,0-.4,0-.65a2,2,0,0,1-.23-.14.63.63,0,0,0,0,.35C674.63,871.68,674.63,871.79,674.64,871.9Z" transform="translate(0 -173.32)"/><path class="cls-1" d="M637.2,790.46h0l0-.29-.13.21h0l.05,0Z" transform="translate(0 -173.32)"/><path class="cls-1" d="M134.24,799.27l-.23.21a5.11,5.11,0,0,1,1.06-.29c-.07-.12-.13-.24-.19-.36A5.5,5.5,0,0,1,134.24,799.27Z" transform="translate(0 -173.32)"/><path class="cls-1" d="M158.24,751a.83.83,0,0,1,.08-.12h-.14Z" transform="translate(0 -173.32)"/><path class="cls-1" d="M50.1,588.5c.49-.59,1-1.19,1.64-1.83-.77.28-1.44.58-2.05.86A4.16,4.16,0,0,1,50.1,588.5Z" transform="translate(0 -173.32)"/><path class="cls-1" d="M53.51,598.45l.32-.05-1-.19A5.32,5.32,0,0,0,53.51,598.45Z" transform="translate(0 -173.32)"/><path class="cls-1" d="M63.58,794.92l.23-.14a4.48,4.48,0,0,1-.28-.47C63.54,794.5,63.56,794.7,63.58,794.92Z" transform="translate(0 -173.32)"/><path class="cls-1" d="M38.33,740.65a8.81,8.81,0,0,0,1.33.39l-.06-.33A3.42,3.42,0,0,1,38.33,740.65Z" transform="translate(0 -173.32)"/><path class="cls-1" d="M49.61,578.91h0Z" transform="translate(0 -173.32)"/><path class="cls-1" d="M126.15,788.81h0l.12-.13c.16-.15.3-.28.43-.42l-.26-.14A3.28,3.28,0,0,1,126.15,788.81Z" transform="translate(0 -173.32)"/><path class="cls-1" d="M124.71,793.45l0,0h-.06Z" transform="translate(0 -173.32)"/><path class="cls-1" d="M124.73,793.42l.22,0-.18-.07Z" transform="translate(0 -173.32)"/><path class="cls-1" d="M99.85,823.06l-.3.41a26.18,26.18,0,0,1,2.92-1.13,2.16,2.16,0,0,0-1.19-.62C100.76,821.77,100.22,822.52,99.85,823.06Z" transform="translate(0 -173.32)"/><path class="cls-1" d="M111.23,838.58l.08-.05,0-.06Z" transform="translate(0 -173.32)"/><path class="cls-1" d="M109.53,776.68l0,0h0v0c0-.06.09-.11.13-.16l.2-.14-.11,0Z" transform="translate(0 -173.32)"/><path class="cls-2" d="M930.09,952.26c0,23.65.1,47.29-.1,70.94,0,5.72,1.69,8.15,7.55,8.16,13.91,0,27.83.4,41.73.73,4.72.11,6-2.23,5.93-6.61-.19-12.65.4-25.33-.23-38-.36-7.16,2.06-9.62,8.8-8.45,5.48.94,6.86-1.51,6.7-6.72-.21-6.69-.07-13.39,0-20.09Z" transform="translate(0 -173.32)"/><path class="cls-3" d="M886.29,1043.84c0,13,.92,13.63,13.75,12.76,4.67-.31,6.14-2.35,6-6.69-.19-6.84.38-13.72-.2-20.5-.56-6.45,1.65-8.68,8-7.82,5.64.77,9.21-1.07,9.14-7.74-.23-20.53-.27-41.06-.35-61.59H886.33C886.17,982.79,886.25,1013.31,886.29,1043.84Z" transform="translate(0 -173.32)"/><path class="cls-4" d="M0,1064H13.77l0,0,0,0H418.2a5.29,5.29,0,0,0,.07-.8c0-4.53,1.3-9.77-.51-13.47-5-10.29-1.93-20.75-2.42-31.11,11.11,0,11.13,0,12.54,11.24a51.41,51.41,0,0,1,.7,8.28c-.2,5.35,1.8,7.59,7.48,7.74,17.52.47,17.7.69,18.37,18.12h369.4c0-.1,0-.21,0-.31.06-1.38.49-2.51,2.12-2.51s2.22,1,2.2,2.47c0,.11,0,.23,0,.35h20.21c.17-3.15,1.25-5,5.61-4.42,2.15.27,6-.85,3.91-3.39-5.2-6.34-1-13.11-2.24-19.51-1-5.08.28-8.27,6.54-7.61,4.2.45,6.92-.77,5-6.21-1-3-.57-6.5-.68-9.77q-.78-23.13-1.5-46.26c0-4.86.05-9.71,0-14.57H0Zm674.87-60.78c-.13-.43.17-.28,0,0Zm-5.71-.28a5.5,5.5,0,0,0,.24.58h-.08a3.59,3.59,0,0,1-.33-.25Zm-32.09-10.28.13-.06h0l0,.29a2.39,2.39,0,0,0-.13-.21h0Zm-9.33,29.77,0,0c0-.05,0-.09-.06-.15ZM622.19,1055l.25.45c-.16-.09-.33-.16-.49-.24Zm-18.41-62.12c-.24.53-.46,1.07-.66,1.63A1.14,1.14,0,0,1,603.78,992.92Zm-19.95-.28.06,0h0c.64,1.54.56,2.34.12,2.73a5.58,5.58,0,0,0-.37-2.73h.25Zm-12.22,1.59.07.08s0,.08,0,.12l-.15-.16Zm-393.72,68.52a.5.5,0,0,0,.05-.13h0l.13,0ZM377.27,1020a.75.75,0,0,1-.07.12s-.08-.07-.11-.11Zm-16.68-65.27-.19.09h0Zm-16.66,33.49c-.21.49-.41,1-.58,1.44A1.68,1.68,0,0,1,343.93,988.25ZM330.24,969l-.37.28C329.86,969,330,968.86,330.24,969Zm1.58,53.47a9.09,9.09,0,0,0-4.15.34C328.65,1021.29,330.48,1021.59,331.82,1022.43Zm-38.36,2.32.12-.12h0l-.14.16Zm-9.94,30.46c.6.76.52,1.2.16,1.46a9.9,9.9,0,0,0-.83-2.08A3.62,3.62,0,0,1,283.52,1055.21Zm-.68-15.4Zm0,0h0l0,0A0,0,0,0,0,282.82,1039.8Zm-7.62-7.61h0l0,.08S275.2,1032.22,275.2,1032.19Zm-15.54-63.77.24.21c-.06,1.51,1.17,2.28,1.54,3.51C260.79,970.92,259.41,970,259.66,968.42ZM202,983.28a2.4,2.4,0,0,0,.28.27h0v0l-.35-.21A1,1,0,0,0,202,983.28Zm-22.57,76.28h0l.12,0-.06.16-.06-.13-.05,0Zm-1.23-50.91a4.77,4.77,0,0,0-.83.52,6.26,6.26,0,0,1,0-.63C177.61,1008.56,177.9,1008.6,178.2,1008.65ZM163.78,972c.24,0,.41,0,.35,0l-.54.54A5.8,5.8,0,0,0,163.78,972Zm-5.57,55.68h0Zm0,4.51.06-.11a.44.44,0,0,0,.08.11Zm-13.07-8c.85.43.47,1.24,0,2.09A11.25,11.25,0,0,1,145.11,1024.23Zm-10-40.36c-.07.12-.13.24-.19.36a5.5,5.5,0,0,0-.64-.44l-.24-.22A4.68,4.68,0,0,0,135.07,983.87Zm-8.91,10.37.12.14c.16.14.3.28.43.41-.09,0-.17.1-.26.15a3.07,3.07,0,0,0-.3-.69Zm-1.45-4.63,0,0,.22,0-.18.06,0-.1h-.06Zm-15.18,16.75v0s.09.1.13.16l.2.14-.11.05c-.08-.1-.15-.21-.23-.32h0Zm-7.06-45.64a2.06,2.06,0,0,1-1.19.61c-.52,0-1.06-.79-1.43-1.33l-.3-.41A28.37,28.37,0,0,0,102.47,960.72ZM63.58,988.14l.23.14a3.64,3.64,0,0,0-.28.47C63.54,988.56,63.56,988.36,63.58,988.14ZM39.66,1042l-.06.33a3.41,3.41,0,0,0-1.27.05A10.11,10.11,0,0,1,39.66,1042Z" transform="translate(0 -173.32)"/><path class="cls-5" d="M224.36,854l.14-.08Z" transform="translate(0 -173.32)"/><path class="cls-6" d="M223.7,854.54l.12-.14Z" transform="translate(0 -173.32)"/><path class="cls-7" d="M224.77,853.85l.14,0Z" transform="translate(0 -173.32)"/><path class="cls-8" d="M224,854.24l.14-.11Z" transform="translate(0 -173.32)"/><path class="cls-9" d="M180.79,884.11h0a170.66,170.66,0,0,1-.72-20.47h1a4.1,4.1,0,0,1,.49,0l-.44,0h-1c.24-4.51.71-9.25,1.41-14l-.09,0c1.93-11.08,6-22.16,14-30.35s13.49-14,18.55-17.34c2,6.84-1,20.36-9.29,31.13C213,822.38,216,808.62,214,801.74c10.11-7.23,17.58-6.74,36.84-6.74h41.91v.24h26.73c33,0,57.32,31.55,86.94,43.11s55.4,11.08,63.58,24.56c.24.24.24.48.49.73H448.84a2.67,2.67,0,0,0-2.65,2.64l7.71,12.05a5.61,5.61,0,0,0,1.76,1.77,5.54,5.54,0,0,1-1.4-1.53l-7.71-12a2.67,2.67,0,0,1,2.65-2.65h21.68a58.65,58.65,0,0,1,5.73,17.1h.17l-.12.24c.18,1,.34,2,.47,3.07H1064v-2.67c-14.71-.1-29.43-.3-44.14-.16-4.59,0-6.17-1.23-6.05-6a126.28,126.28,0,0,0-.83-22c-.67-4.53-2.11-7.24-7-6.73-4.48.47-5.57-1.65-5.51-5.73.13-10.12-.35-20.25,0-30.37.16-5.2-1.22-7.66-6.7-6.71-6.74,1.17-9.16-1.29-8.8-8.46.63-12.62,0-25.3.23-38,.06-4.37-1.21-6.71-5.93-6.6-13.9.32-27.82.69-41.73.72-5.86,0-7.6,2.45-7.55,8.17.23,27.84.09,55.69.08,83.53,0,1.77,0,3.55-.12,5.31-.17,2.54-2.1,2.38-3.89,2.47-2.14.12-3.31-.64-3.28-3,0-2.53-.12-5-.19-7.58.1-23.8.12-47.6.38-71.39.07-6.67-3.5-8.52-9.14-7.74-6.31.86-8.52-1.38-8-7.82.58-6.79,0-13.67.2-20.5.11-4.34-1.36-6.38-6-6.69-12.83-.87-13.73-.27-13.75,12.76,0,34.95-.17,69.9.11,104.85.05,5.82-1.67,7.21-7.26,7.11-14.28-.28-14.25,0-14.08-14.46.08-6.83,0-13.66,0-20.49q.75-23.13,1.5-46.26c.11-3.28-.36-6.8.68-9.77,1.9-5.44-.82-6.66-5-6.22-6.26.66-7.52-2.53-6.54-7.6,1.22-6.4-3-13.17,2.24-19.51,2.09-2.55-1.76-3.66-3.91-3.4-5.13.63-5.73-2-5.63-6.21.42-18.45.46-36.91,1-55.37.14-5.53-1.68-9.53-6.89-11.14-2.92-.91-3.29-2.48-3.35-5-.06-2.1.81-4.48-2.09-7.44.32,12.68-10.82,20.38-8.83,33.31,1.79,11.58-.08,23.71-.24,35.6,0,4,.21,8.09.27,12.14,0,1.42-.62,2.46-2.2,2.46s-2.06-1.12-2.12-2.5a2.17,2.17,0,0,1,0-.76c3.08-9.45-4.08-15.2-8.06-22.05C811.1,688.47,803.6,683.79,795,681c-4.66-1.53-4.83-4.49-4.13-8.2.92-4.94,1.81-9.86.2-15.78-4.14,4.95-3.74,10.17-3.51,15.09.22,4.71-.91,7.77-6,8.64-1.45.26-2.76,1.42-4.21,1.63-4,.58-7.51,6.71-11.25,3.15-4.63-4.41-11-8.78-9.15-17.09,1.08-5-1.77-10.53,2.35-15.23,1.52-1.73,0-3.8-2-3.77-5.11.09-4.92-3.18-4.67-6.57.94-13.13-.81-25.72-7.62-36.84-7.08,11.19-8.76,24.12-7.8,37.7.15,2.19,1.58,5.8-1.92,6.41-4.16.72-8.79,1.44-12.65-.51-1.73-.87-.79-4.3.14-6.32,2.71-6,4.82-11.52-3.57-14.85-2-.78-1.46-3.06-1.4-4.78a44,44,0,0,0-10.34-30.92c-2-2.37-2.07-5-2-7.85.12-12,1.3-24,.23-36.08-1-11-.35-22.27-.1-33.4.1-4.11-1.92-8.7,3.59-11.94,2.12-1.25,2-7.88.21-9.1-6.08-4.18-3.73-9.85-3.74-14.87,0-7,1-14.41.47-20.91-.5-5.64-2.09-11.91-2.72-17.94-1.54-14.8-2.76-29.62-4.15-44.43-.47-5-1.07-10-1.56-15-.16-1.53-.13-3.5-2-3.47-2.28,0-2.29,2.16-2.41,4-1,14.86-1.74,29.75-3.1,44.58-1,10.33-1.51,20.56-4.78,30.86-2,6.31.26,14.79.14,22.29-.09,5.39,1.45,11.05-2.53,16.05-1,1.24-.73,4.11-.12,5.91,6,17.77,1.88,36,2.09,54,.05,4.28-2.29,9.76-2.75,15.6-9.12-4-17.78-8.16-27.37-9.54-3.19-.45-2.66-3.28-2.63-5.46a119.33,119.33,0,0,0-2.13-25.09c-3.54.61-3.58,3.32-3.85,5.69-.59,5-1.94,10.16-1.32,15,1.06,8.43-3.44,9.77-10.15,10.78-28.05,4.22-55.49,34.17-57.24,62h0c-2.21,6-8.56,10.92-4.68,18.45h0l-8.64,1.55c-.15-1.47-.31-2.94-.46-4.41V638.3c1-11.37,1.21-22.59-6.73-33.51,1.14,6-5.32,7.93-5.38,13.33a7.06,7.06,0,0,1,.4,1.11l-.4-1.11c-2.35,9.66-.64,19.46-1,29.19-.13,3.08-.18,5.75-3.07,7.94a46.16,46.16,0,0,0-14,18.47c-2.1,4.76-4.21,5.29-8.28,2.52-2.44-1.67-5.23-3-8.41-2.91h0c-2-2.12-4.7-1.46-7.17-1.65h0c-1.5-5.43.88-11.31-2.37-16.68-1.71,5-1.43,10.14-.95,15.31l-1.62,1.61h0c-15.18.5-23.16,10.37-30.64,22.55V633.79c.14-36.49,1.54-73,.08-109.45.11-4.29.06-8.6.37-12.87.23-3.19-1.31-6.53,3.25-9,2.63-1.46,2.29-8.49.49-9.67-6.07-4-3.66-9.41-3.66-14.15,0-7.23-.26-14.45.69-21.79.54-4.15-2.44-9.53-2.85-14.77-1.63-20.57-3.79-41.1-5.79-61.64-.15-1.62.58-4.17-1.9-4.24-2.82-.08-2.49,2.53-2.61,4.51q-1.62,26.77-3.25,53.56h0c-2.21,3.5-1.17,7.36-1.22,11.1-6.07,13.16-3.34,27.17-2.51,40.61.32,5.17-4.66,6.81-3.37,11a5.15,5.15,0,0,0,2.56,6.23l0,0c0,15.93-.2,31.87.31,47.79.14,4-2.6,6.24-3.38,9.58-1.26,5.39,2.91,9.25,3.15,14,.34,7.07.27,14.15.37,21.23q-.18,58.7-.35,117.38c0,1.76,0,3.53-.08,5.3-.69,18-.69,18.17-18.39,18.64-5.68.16-7.68,2.4-7.48,7.75a51.19,51.19,0,0,1-.7,8.27c-1.41,11.21-1.43,11.21-12.54,11.25.49-10.36-2.6-20.83,2.42-31.11,1.81-3.7.54-8.94.51-13.47,0-1.88-.92-3.81-3-3.79-6.48,0-6.12-4.23-6.12-8.73q-.06-56.13-.33-112.24c0-4,.77-7.07,4-9.9,6.59-5.79,7-13.49,5.45-21.55-.26-1.3-.57-2.82-2-2.83-9.47-.08-7.83-6.82-7.82-12.69a10.41,10.41,0,0,0-.81-2.87h0c.31-5.45.68-10.3,4.83-15.17,3.78-4.43,2.94-11.5,2.35-17.59-.29-3-2.62-3.68-5-3.37-5.38.72-5.55-2.46-5.43-6.41.17-6.08-.06-12.17.09-18.24,0-2.05-1.07-4.75,2.13-5.74,2-.61,2.93-2,2.39-4-.58-2.23-2.59-2.36-4.31-2.16-4.08.46-6.89-.6-7.58-5.09-.54-3.56-3.37-6.52,1.59-10.29,5.53-4.22,4.11-11.93-.76-15.28-8.44-5.8-7.06-13.51-7.24-21.37-.05-2.09,1-4.52-2.05-6.92-1.69,5.22-.78,10.13-.83,14.86-.05,4.15-.37,7.23-4.51,10.08-7.77,5.36-8.17,12.55-2.37,20.09,2.5,3.25-1.12,12.45-5.71,14.16-3.07,1.14-5.89,2.17-1.33,5.06,2.25,1.43,1.7,3.46,1.71,5.4,0,8.61,0,17.22-.06,25.83-10.36.22-15.28,10.94-8.4,20.47,6.69,9.26,2.36,19,3.34,28.46a2.36,2.36,0,0,1-1.05,1.87c-2.67,1.4-8,.51-7.15,5,1.2,6.29-1.32,13.68,4,18.79,4.32,4.17,4.72,8.93,4.7,14.41-.14,38.23-.08,76.45-.08,115.1-2.62-1.36.1-5.27-3.34-5.79-2.48,1.34-1.13,4.49-2.57,6.74-3.4-1,.23-7-4.23-6.36-3.16.47-.73,4.74-3.06,6.41-3.7-1-.36-5.31-3.28-6.8-3.62.76-.56,5.16-2.93,6.36s-2.58-15.25-6.65-.63c-.58,2.09-3.37,2.15-4.19-.8-.44-1.61.23-3.62-1.82-4.54-3.47.81-1.67,4.44-3.22,6.14-3.75-.21-1-4.88-4.16-5.41-1.69.31-1.45,1.78-1.54,2.92-.12,1.69-.47,3.07-2.56,2.8-1.92-.25-1.29-1.67-1.26-2.87,0-1.81-.12-4-2.47-3.83-2.14.15-2.44,2.24-2.28,4.11.11,1.28.44,2.56-1.51,2.64-1.78.08-1.77-1.21-2.18-2.43-1.43-4.29-3.21-5.06-4.32.06-.79,3.61-3.32,2.34-5.32,2.42-2.61.09-2.72-2-2.45-3.75,1.38-8.46-3.19-17.51,2.77-25.56,1.38-1.87-.56-3.38-2.4-3.7a70.4,70.4,0,0,0-7.56-.53,10.31,10.31,0,0,1-1,1.06,1.31,1.31,0,0,1,1-1.06c.26-3.28.55-6.55.77-9.83.18-2.66-.35-5.91-2.66-6.68-6.25-2.09-7.28-7.83-10-12.43A124,124,0,0,0,233,601.89c-3.75-1.83-5.24-3.66-5-7.82.36-6.82.17-13.67,0-20.5,0-2.06,1-4.6-2.46-6.57-1.34,9-2.31,17.58-1.9,26.21.23,4.68-1.29,6.8-5.63,8.94-16.5,8.15-30.84,19.19-41.8,34.23h0c-4.84,3.86-7.38,9.4-10.52,14.49-3,4.92-4.79,10.26-10.59,13.72-5.52,3.28-2.62,10.62-3.4,16.19h0c-4.39.73-11.06-2.11-6.37,8,3,6.41,1.13,15.35.45,23.06-.4,4.6-4.95,3.13-6.87,1.57-4.4-3.53-4.12-3.88-6.52,1.32-1.38-1.8-6.22-2-8.39-.45-.48.33-1.42,0-2.15,0-.33-2,.41-4.26-1.5-5.94-2.77,1.54-1.71,4-2.21,5.93-1.77.1-2.81-.51-2.88-2.51-.05-1.71-.1-4-2.5-3.77-1.84.17-1.6,2.25-1.72,3.72-.11,1.3-.29,2.51-2,2.63-1.08.08-2.09-.14-2.43-1.23-.55-1.79.15-4.68-2.71-4.55-3.31.16-1,4-3.06,5.44-3.43-.89-.22-5.32-3.34-6.6-3.4,1-.22,5.25-3,6.74-3.55-.71,0-6.82-4.32-6.3-3,.36-1.12,4.38-2.56,6.43-3.06-1.64-.68-5.71-3.77-6.83-3,.83-.59,4.21-3.4,6.15V687c.42-28.37.91-56.75,0-85.12h0c0-7.25.34-14,6-20,4.12-4.42,1.58-11.6,3-17.42.17-.71-.74-2.37-1.33-2.47-11-1.71-6.31-10.37-7.32-16.42a58.73,58.73,0,0,1-.35-7.52h0c2.09-7.27,8-13.2,6.46-21.85-.79-4.33-1.19-7.53-6.42-7-3.87.4-4.64-1.55-4.55-4.94.19-7.08,0-14.17.11-21.25,0-1.45,0-3.6.86-4.22,4.8-3.49,4-4.82-1.43-6.19-4.23-1.07-6.75-11.36-4.08-14.61,4.64-5.65,5.08-13.21-1-17.4-7-4.82-6.78-10.83-6.51-17.58a27.2,27.2,0,0,0-.82-8.76c-3.45,4.92-2,10.38-2.09,15.56-.09,3.49-.81,5.84-3.78,8.24-8.8,7.15-9,11.88-1.81,21.13,2.32,3-1.73,12.65-5.56,13.27-7.54,1.21-7.42,1.14-3.44,7.1.87,1.3.78,3.38.79,5.1,0,8.1,0,16.19-.07,24.29-3.38.95-8.88-2-9.88,2.92-1.43,7-1.54,14.53,3.56,20.74,2.54,3.1,4.07,23,1.61,25.93-1,1.18-3.06,1.46-4.63,2.15h0a1.14,1.14,0,0,0-1.23.11c-2.23-.14-3.28.8-2.87,3.1-2,8.16-1.47,15.64,5.6,21.42h0a11.49,11.49,0,0,1,3.6,8.63c-.23,19.69-.38,39.39,0,59.08.12,6-2.15,6.72-7.43,7q-17.71.79-35.44,1.09V884.29H180.81C180.8,884.23,180.8,884.17,180.79,884.11Zm734.77-39.73a7.7,7.7,0,0,0,.21.78,13.11,13.11,0,0,0-1.58,0Zm-51.95,37.21h0a.61.61,0,0,1-.07-.1Zm-4.64-41,0,0h0l.07.11-.24.14-.13,0Zm-.43.33.18,0a3.61,3.61,0,0,1-.42.16Zm-183.67-61c.17.28-.13.42,0,0Zm-.22,91.38a2,2,0,0,0,.23.14c0,.25,0,.46,0,.65l-.22-.11c0-.11,0-.22,0-.33A.63.63,0,0,1,674.65,871.22Zm-5.33-91.68h.08a5.37,5.37,0,0,0-.24.57l-.17-.32A3.59,3.59,0,0,1,669.32,779.54Zm-20.7,68v.06h0ZM637,790.38l.13-.21,0,.29h0l-.13-.06-.05,0Zm-5.14,66.28c-.09.06-.17.1-.26.17a3.79,3.79,0,0,0-.06-.38Zm-4.21-96.06,0,0-.11.12Zm-1.09-94.05-1.2.12c0-.08-.07-.15-.11-.22Zm-4.16,61-.25.44c-.07-.07-.16-.13-.24-.2C622.12,727.73,622.28,727.66,622.44,727.57Zm-19.32,60.94c.2.56.42,1.1.66,1.63A1.14,1.14,0,0,1,603.12,788.51Zm-7.29-112.32.16.18,0,0-.22-.2ZM584,787.64c.44.39.52,1.19-.12,2.74h0l-.06,0v0h-.25A5.6,5.6,0,0,0,584,787.64Zm-12.26,1s0,.08,0,.12l-.07.08-.06,0Zm-21.26-72.26a13.38,13.38,0,0,0,0,1.43A1.49,1.49,0,0,1,550.44,716.37ZM548.92,870c0,.19-.07.35-.1.53-.21-.31-.46-.66-.74-1A2.09,2.09,0,0,1,548.92,870Zm-7-155.74c.15.22.14.34,0,.39-.07-.23-.15-.46-.22-.71Zm-7.06,133.84.25.13-.33,0S534.85,848.17,534.88,848.11ZM472.45,503.26c-.09.28-.19.55-.29.8a2,2,0,0,0-.37-.39C472,503.53,472.23,503.41,472.45,503.26ZM377.2,762.91a.75.75,0,0,1,.07.12h-.18S377.17,763,377.2,762.91Zm-33.27,31.9a1.68,1.68,0,0,1-.58-1.44C343.52,793.84,343.72,794.32,343.93,794.81Zm-12.11-34.19c-1.34.84-3.17,1.15-4.15-.34A9,9,0,0,0,331.82,760.62Zm-38.23-2.19h0l-.12-.12v0Zm-9.91-32c.36.26.44.71-.16,1.47a3.55,3.55,0,0,1-.67.61A9.68,9.68,0,0,0,283.68,726.38Zm-.84,16.87Zm0,0h0a0,0,0,0,0,0,0Zm-7.6,7.6h0s0-.05,0-.08A.43.43,0,0,0,275.23,750.85Zm-73,48.61v0h0a1.79,1.79,0,0,0-.28.27l-.08-.12Zm-9.4-134.89c.1.36.21.72.33,1.06l-1.59.1A12.19,12.19,0,0,0,192.87,664.57ZM12.79,718.32a2.6,2.6,0,0,1,1,.77Zm25.54,22.33a3.42,3.42,0,0,0,1.27.06l.06.33A8.81,8.81,0,0,1,38.33,740.65ZM49.61,578.91h0Zm.49,9.59a4.16,4.16,0,0,0-.41-1c.61-.28,1.28-.58,2.05-.86C51.13,587.31,50.59,587.91,50.1,588.5Zm3.41,10a5.32,5.32,0,0,1-.64-.24l1,.19ZM63.58,794.92c0-.22,0-.42,0-.61a4.48,4.48,0,0,0,.28.47Zm36,28.55.3-.41c.37-.54.91-1.29,1.43-1.34a2.16,2.16,0,0,1,1.19.62A26.18,26.18,0,0,0,99.55,823.47Zm10.12-46.91c0,.05-.09.1-.13.16v0h0l0,0,.23-.31.11,0Zm1.56,62,0-.11,0,.06Zm13.5-45.16,0,0,0,0h.06l0-.11.18.07Zm1.55-4.74-.12.13h0a3.28,3.28,0,0,0,.3-.69l.26.14C126.58,788.4,126.44,788.53,126.28,788.68Zm7.73,10.8.23-.21a5.5,5.5,0,0,0,.64-.44c.06.12.12.24.19.36A5.11,5.11,0,0,0,134,799.48Zm11.1-40.65a11.25,11.25,0,0,1,0-2.09C145.58,757.58,146,758.4,145.11,758.83Zm13.09-3.46Zm0-4.4-.06-.12h.14A.83.83,0,0,0,158.24,751Zm5.54,60.08c-.05-.2-.12-.4-.19-.6l.54.54C164.19,811,164,811.05,163.78,811.05Zm14.31-90.64-.13,0h0a.61.61,0,0,0-.05-.12Zm-.76,54.11a6.07,6.07,0,0,1,0-.63,4.77,4.77,0,0,0,.83.52C177.9,774.46,177.61,774.5,177.33,774.52Zm2.13-51h0l0,0,.05,0,.06-.14.06.17Z" transform="translate(0 -173.32)"/><path class="cls-10" d="M235,855.93h-.11a2.18,2.18,0,0,1-2.16,2.17h.1A2.17,2.17,0,0,0,235,855.93Z" transform="translate(0 -173.32)"/><path class="cls-11" d="M223.46,854.89l.09-.17Z" transform="translate(0 -173.32)"/><path class="cls-12" d="M228.11,844.61a7.78,7.78,0,0,1-4.23-1.28,8.07,8.07,0,0,0,1.92,1,8,8,0,0,0,2.56.48h51.78v-.24L288.32,807h0l-8.18,37.57Z" transform="translate(0 -173.32)"/><path class="cls-13" d="M185.14,865.34Z" transform="translate(0 -173.32)"/><path class="cls-14" d="M358.89,832.09h10.35l5.34,5.1,0-.05-5.3-5.3H358.89a6.23,6.23,0,0,0-4.58,1.93,6.59,6.59,0,0,0-1.9,4.17,6.19,6.19,0,0,1,1.9-3.93A6.61,6.61,0,0,1,358.89,832.09Z" transform="translate(0 -173.32)"/><path class="cls-15" d="M181.61,863.66a5.84,5.84,0,0,1,3.46,1.61A5.74,5.74,0,0,0,181.61,863.66Z" transform="translate(0 -173.32)"/><path class="cls-16" d="M352.39,838.35v.11a3.93,3.93,0,0,1,0-.49C352.4,838.09,352.39,838.22,352.39,838.35Z" transform="translate(0 -173.32)"/><path class="cls-17" d="M369.21,831.81l-.21-.21h.24l-19.26-19a19.26,19.26,0,0,0-3.09-2.49,18.87,18.87,0,0,1,2.73,2.25Z" transform="translate(0 -173.32)"/><path class="cls-18" d="M377.43,838.3v.05a6.14,6.14,0,0,1-1.92,4.57l-.23.24a4.23,4.23,0,0,1-.59.69,4,4,0,0,1-.63.52,6.66,6.66,0,0,1-3.13.72h1a3.59,3.59,0,0,0,2.41-.72,7.24,7.24,0,0,0,1.69-1.21,7.71,7.71,0,0,0,1.68-4.81,6.48,6.48,0,0,0-6.45-6.51h-.29A6.48,6.48,0,0,1,377.43,838.3Z" transform="translate(0 -173.32)"/><polygon class="cls-19" points="292.66 710.98 292.78 710.98 292.78 710.79 223.33 710.79 223.33 710.79 292.66 710.79 292.66 710.98"/><path class="cls-20" d="M315.3,858.1a2.17,2.17,0,0,0,2.16-2.17v-.08a2.17,2.17,0,0,1-2.15,2h-7.48a2.17,2.17,0,0,1-2.15-2s0,.08,0,.13a2.18,2.18,0,0,0,2.16,2.16Z" transform="translate(0 -173.32)"/><polygon class="cls-21" points="306.87 697.78 347.57 697.78 347.57 699.95 347.81 699.95 347.81 697.78 306.87 697.78 306.87 697.78"/><path class="cls-22" d="M306.12,844.85l0,.24h52.74a6.8,6.8,0,0,1-1.76-.24Z" transform="translate(0 -173.32)"/><path class="cls-23" d="M223.46,857a1.86,1.86,0,0,1-.1-.2A1.86,1.86,0,0,0,223.46,857Z" transform="translate(0 -173.32)"/><path class="cls-24" d="M223.29,856.58l-.06-.22Z" transform="translate(0 -173.32)"/><path class="cls-25" d="M223.29,855.28c0-.06,0-.13.07-.19S223.32,855.22,223.29,855.28Z" transform="translate(0 -173.32)"/><path class="cls-26" d="M223.19,855.94a1.8,1.8,0,0,0,0,.22,1.79,1.79,0,0,1,0-.23Z" transform="translate(0 -173.32)"/><path class="cls-27" d="M223.7,857.32l-.15-.18Z" transform="translate(0 -173.32)"/><path class="cls-28" d="M223.21,855.7c0-.07,0-.14,0-.21S223.22,855.63,223.21,855.7Z" transform="translate(0 -173.32)"/><path class="cls-29" d="M224.77,858c-.09,0-.18,0-.27-.09C224.59,858,224.68,858,224.77,858Z" transform="translate(0 -173.32)"/><path class="cls-30" d="M224.36,857.84a1.55,1.55,0,0,1-.22-.12A1.55,1.55,0,0,0,224.36,857.84Z" transform="translate(0 -173.32)"/><path class="cls-31" d="M224,857.61a1.3,1.3,0,0,1-.18-.15A1.3,1.3,0,0,0,224,857.61Z" transform="translate(0 -173.32)"/><path class="cls-32" d="M225.35,858.1a2.12,2.12,0,0,1-.44-.05A2.12,2.12,0,0,0,225.35,858.1Z" transform="translate(0 -173.32)"/><path class="cls-33" d="M169.43,398.14c-19.32-.58-36.48,16.21-36.79,36-.29,19.16,15.9,35.63,35.64,36.22S205.09,454,205,433.74C204.88,414.92,188.69,398.7,169.43,398.14Z" transform="translate(0 -173.32)"/><path class="cls-34" d="M850.85,617.38a3.12,3.12,0,0,0-1.05-.12A6.77,6.77,0,0,0,843,624a7.14,7.14,0,0,0,5.83,7h31.76a9.17,9.17,0,0,0,0-18.33h-.35a10.62,10.62,0,0,0,.35-2.69v-.58a10.86,10.86,0,0,0-21.72.47,10.54,10.54,0,0,0,.35,2.68h-.35A9.25,9.25,0,0,0,850.85,617.38Z" transform="translate(0 -173.32)"/><path class="cls-35" d="M648.35,288.45a32.88,32.88,0,0,0,0-65.75h-1.2a41.8,41.8,0,0,0,1.2-9.39v-1.93a39,39,0,0,0-78,1.93,41.81,41.81,0,0,0,1.21,9.39h-1.21A33.08,33.08,0,0,0,541.42,240c-1.2,0-2.65-.24-3.85-.24h-.15a24.32,24.32,0,0,0-3.22,48.41v.24Z" transform="translate(0 -173.32)"/><path class="cls-36" d="M271.74,297.36a18.91,18.91,0,1,0,0-37.81H271a22,22,0,0,0,.72-5.54v-1.2a22.41,22.41,0,1,0-44.8,1,20.37,20.37,0,0,0,.73,5.54h-.73a19,19,0,0,0-16.61,9.87,6.64,6.64,0,0,0-2.17-.24,14,14,0,0,0-14,14,14.91,14.91,0,0,0,12,14.45Z" transform="translate(0 -173.32)"/><path class="cls-37" d="M1064,952.26V895.84H479.17a8.25,8.25,0,0,1,2.06,5.37v.72a8.12,8.12,0,0,1-8,8.19H448.35a26.49,26.49,0,0,1-52.72,0H237.38a26.49,26.49,0,0,1-52.74-.2,8.12,8.12,0,0,1-6.38-7.85v-.86a8.09,8.09,0,0,1,2-5.37H0v56.42H1064Z" transform="translate(0 -173.32)"/><path class="cls-38" d="M788.54,894.87c-.83,0-1.67,0-2.5.07h1.89Z" transform="translate(0 -173.32)"/><path class="cls-39" d="M788.54,894.87c-.83,0-1.67,0-2.5.07h1.89Z" transform="translate(0 -173.32)"/><path class="cls-40" d="M161.89,888.09c-.43.16-.82.3-1.21.42a3.16,3.16,0,0,1,.28.39A9.61,9.61,0,0,0,161.89,888.09Z" transform="translate(0 -173.32)"/><path class="cls-39" d="M161.89,888.09c-.43.16-.82.3-1.21.42a3.16,3.16,0,0,1,.28.39A9.61,9.61,0,0,0,161.89,888.09Z" transform="translate(0 -173.32)"/><path class="cls-41" d="M953.52,894.94H1064v-.73c-8.35,0-16.69,0-25,0Q996.24,894.58,953.52,894.94Z" transform="translate(0 -173.32)"/><path class="cls-39" d="M953.52,894.94H1064v-.73c-8.35,0-16.69,0-25,0Q996.24,894.58,953.52,894.94Z" transform="translate(0 -173.32)"/><path class="cls-42" d="M556.78,892.16h1.13c-.28-.06-.54-.14-.81-.21Z" transform="translate(0 -173.32)"/><path class="cls-39" d="M556.78,892.16h1.13c-.28-.06-.54-.14-.81-.21Z" transform="translate(0 -173.32)"/><path class="cls-43" d="M557.1,891.1l.81-.2h-1.13Z" transform="translate(0 -173.32)"/><path class="cls-39" d="M557.1,891.1l.81-.2h-1.13Z" transform="translate(0 -173.32)"/><path class="cls-44" d="M13.76,887.75q66.18-.16,132.37-.33c6.55,0,13.1.16,19.65.24h15.38c-.14-1.11-.26-2.23-.35-3.36H0v3.46Z" transform="translate(0 -173.32)"/><path class="cls-45" d="M13.76,887.75q66.18-.16,132.37-.33c6.55,0,13.1.16,19.65.24h15.38c-.14-1.11-.26-2.23-.35-3.36H0v3.46Z" transform="translate(0 -173.32)"/><path class="cls-46" d="M477.46,887.67l79.06,0h0l127.65,0h0l3.08,0h0l.73-.18.72.2,18.26,0h0a176.5,176.5,0,0,1,25.4,0h0c2.36-1.3,4.94-.85,7.44-.86,40,0,80-.15,120,0,21,.09,42,.69,63,1.06q58.06.46,116.13.93c8.35.06,16.69,0,25,.05v-4.56H477.13C477.27,885.42,477.38,886.54,477.46,887.67Z" transform="translate(0 -173.32)"/><path class="cls-45" d="M477.46,887.67l79.06,0h0l127.65,0h0l3.08,0h0l.73-.18.72.2,18.26,0h0a176.5,176.5,0,0,1,25.4,0h0c2.36-1.3,4.94-.85,7.44-.86,40,0,80-.15,120,0,21,.09,42,.69,63,1.06q58.06.46,116.13.93c8.35.06,16.69,0,25,.05v-4.56H477.13C477.27,885.42,477.38,886.54,477.46,887.67Z" transform="translate(0 -173.32)"/><path class="cls-47" d="M738.25,887.21a38.86,38.86,0,0,0-5.87.44C734.33,887.52,736.29,887.36,738.25,887.21Z" transform="translate(0 -173.32)"/><path class="cls-39" d="M738.25,887.21a38.86,38.86,0,0,0-5.87.44C734.33,887.52,736.29,887.36,738.25,887.21Z" transform="translate(0 -173.32)"/><path class="cls-48" d="M804.34,887.62c2.33,0,4.66.17,7,.29A11.44,11.44,0,0,0,804.34,887.62Z" transform="translate(0 -173.32)"/><path class="cls-39" d="M804.34,887.62c2.33,0,4.66.17,7,.29A11.44,11.44,0,0,0,804.34,887.62Z" transform="translate(0 -173.32)"/><path class="cls-49" d="M779.09,887.76c3.18.22,6.35.4,9.45.43A50.41,50.41,0,0,0,779.09,887.76Z" transform="translate(0 -173.32)"/><path class="cls-39" d="M779.09,887.76c3.18.22,6.35.4,9.45.43A50.41,50.41,0,0,0,779.09,887.76Z" transform="translate(0 -173.32)"/><path class="cls-50" d="M160.68,894.55c.36.11.74.25,1.13.39h.05a10.6,10.6,0,0,0-.9-.79A2.63,2.63,0,0,1,160.68,894.55Z" transform="translate(0 -173.32)"/><path class="cls-39" d="M160.68,894.55c.36.11.74.25,1.13.39h.05a10.6,10.6,0,0,0-.9-.79A2.63,2.63,0,0,1,160.68,894.55Z" transform="translate(0 -173.32)"/><polygon class="cls-51" points="292.66 713.44 263.86 713.44 292.9 713.44 292.9 713.68 375.14 713.68 375.14 713.44 292.9 713.44 292.9 711.03 292.78 711.03 292.78 710.98 292.66 710.98 292.66 713.44"/><polygon class="cls-39" points="292.66 713.44 263.86 713.44 292.9 713.44 292.9 713.68 375.14 713.68 375.14 713.44 292.9 713.44 292.9 711.03 292.78 711.03 292.78 710.98 292.66 710.98 292.66 713.44"/><path class="cls-52" d="M922.83,887.87c-21-.37-42-1-63-1.06-40-.17-80,0-120,0-2.5,0-5.08-.44-7.44.86h0a176.5,176.5,0,0,0-25.4,0h0l-18.26,0-.72-.2-.73.18h0l-3.08,0h0l-127.65,0h0l-79.06,0c.14,1.86.2,3.72.16,5.59h-2.71a8.22,8.22,0,0,1,3.35,1.68H786c.83,0,1.67-.06,2.5-.07l-.61.07H953.52q42.72-.35,85.44-.68c8.35-.06,16.69,0,25,0v-5.36c-8.35,0-16.69,0-25-.05Q980.9,888.37,922.83,887.87Zm-366.05,4.29.32-.21c.27.07.53.15.81.21Zm.32-1.06-.32-.2h1.13Zm175.28-3.45a38.86,38.86,0,0,1,5.87-.44C736.29,887.36,734.33,887.52,732.38,887.65Zm46.71.11a50.41,50.41,0,0,1,9.45.43C785.44,888.16,782.27,888,779.09,887.76Zm25.25-.14a11.44,11.44,0,0,1,7,.29C809,887.79,806.67,887.67,804.34,887.62Z" transform="translate(0 -173.32)"/><path class="cls-52" d="M922.83,887.87c-21-.37-42-1-63-1.06-40-.17-80,0-120,0-2.5,0-5.08-.44-7.44.86h0a176.5,176.5,0,0,0-25.4,0h0l-18.26,0-.72-.2-.73.18h0l-3.08,0h0l-127.65,0h0l-79.06,0c.14,1.86.2,3.72.16,5.59h-2.71a8.22,8.22,0,0,1,3.35,1.68H786c.83,0,1.67-.06,2.5-.07l-.61.07H953.52q42.72-.35,85.44-.68c8.35-.06,16.69,0,25,0v-5.36c-8.35,0-16.69,0-25-.05Q980.9,888.37,922.83,887.87Zm-366.05,4.29.32-.21c.27.07.53.15.81.21Zm.32-1.06-.32-.2h1.13Zm175.28-3.45a38.86,38.86,0,0,1,5.87-.44C736.29,887.36,734.33,887.52,732.38,887.65Zm46.71.11a50.41,50.41,0,0,1,9.45.43C785.44,888.16,782.27,888,779.09,887.76Zm25.25-.14a11.44,11.44,0,0,1,7,.29C809,887.79,806.67,887.67,804.34,887.62Z" transform="translate(0 -173.32)"/><path class="cls-45" d="M922.83,887.87c-21-.37-42-1-63-1.06-40-.17-80,0-120,0-2.5,0-5.08-.44-7.44.86h0a176.5,176.5,0,0,0-25.4,0h0l-18.26,0-.72-.2-.73.18h0l-3.08,0h0l-127.65,0h0l-79.06,0c.14,1.86.2,3.72.16,5.59h-2.71a8.22,8.22,0,0,1,3.35,1.68H786c.83,0,1.67-.06,2.5-.07l-.61.07H953.52q42.72-.35,85.44-.68c8.35-.06,16.69,0,25,0v-5.36c-8.35,0-16.69,0-25-.05Q980.9,888.37,922.83,887.87Zm-366.05,4.29.32-.21c.27.07.53.15.81.21Zm.32-1.06-.32-.2h1.13Zm175.28-3.45a38.86,38.86,0,0,1,5.87-.44C736.29,887.36,734.33,887.52,732.38,887.65Zm46.71.11a50.41,50.41,0,0,1,9.45.43C785.44,888.16,782.27,888,779.09,887.76Zm25.25-.14a11.44,11.44,0,0,1,7,.29C809,887.79,806.67,887.67,804.34,887.62Z" transform="translate(0 -173.32)"/><path class="cls-53" d="M160.68,894.55a2.63,2.63,0,0,0,.28-.4,10.6,10.6,0,0,1,.9.79h19.27A8.07,8.07,0,0,1,186.3,893H182c-.34-1.78-.61-3.57-.83-5.37H165.78c-6.55-.08-13.1-.25-19.65-.24q-66.18.14-132.37.33H0v7.19H161.81C161.42,894.8,161,894.66,160.68,894.55Zm1.21-6.46a9.61,9.61,0,0,1-.93.81,3.16,3.16,0,0,0-.28-.39C161.07,888.39,161.46,888.25,161.89,888.09Z" transform="translate(0 -173.32)"/><path class="cls-53" d="M160.68,894.55a2.63,2.63,0,0,0,.28-.4,10.6,10.6,0,0,1,.9.79h19.27A8.07,8.07,0,0,1,186.3,893H182c-.34-1.78-.61-3.57-.83-5.37H165.78c-6.55-.08-13.1-.25-19.65-.24q-66.18.14-132.37.33H0v7.19H161.81C161.42,894.8,161,894.66,160.68,894.55Zm1.21-6.46a9.61,9.61,0,0,1-.93.81,3.16,3.16,0,0,0-.28-.39C161.07,888.39,161.46,888.25,161.89,888.09Z" transform="translate(0 -173.32)"/><path class="cls-45" d="M160.68,894.55a2.63,2.63,0,0,0,.28-.4,10.6,10.6,0,0,1,.9.79h19.27A8.07,8.07,0,0,1,186.3,893H182c-.34-1.78-.61-3.57-.83-5.37H165.78c-6.55-.08-13.1-.25-19.65-.24q-66.18.14-132.37.33H0v7.19H161.81C161.42,894.8,161,894.66,160.68,894.55Zm1.21-6.46a9.61,9.61,0,0,1-.93.81,3.16,3.16,0,0,0-.28-.39C161.07,888.39,161.46,888.25,161.89,888.09Z" transform="translate(0 -173.32)"/><path class="cls-37" d="M181.13,894.94H0v.9H180.23A9.56,9.56,0,0,1,181.13,894.94Z" transform="translate(0 -173.32)"/><path class="cls-39" d="M181.13,894.94H0v.9H180.23A9.56,9.56,0,0,1,181.13,894.94Z" transform="translate(0 -173.32)"/><path class="cls-37" d="M787.93,894.94H478.26a8.6,8.6,0,0,1,.91.9H1064v-.9H787.93Z" transform="translate(0 -173.32)"/><path class="cls-39" d="M787.93,894.94H478.26a8.6,8.6,0,0,1,.91.9H1064v-.9H787.93Z" transform="translate(0 -173.32)"/><path class="cls-54" d="M188.82,893H186.3a8.07,8.07,0,0,0-5.17,1.92,9.56,9.56,0,0,0-.9.9,8.09,8.09,0,0,0-2,5.37v.86a8.12,8.12,0,0,0,6.38,7.85c-.07-.81-.12-1.62-.12-2.45A26.26,26.26,0,0,1,188.82,893Z" transform="translate(0 -173.32)"/><path class="cls-54" d="M399.63,893.26H292.78V893H233.11a26.67,26.67,0,0,1,4.4,14.45c0,.89,0,1.77-.13,2.65H395.63a26,26,0,0,1-.13-2.65A26.39,26.39,0,0,1,399.63,893.26Z" transform="translate(0 -173.32)"/><path class="cls-54" d="M478.26,894.94a8.22,8.22,0,0,0-3.35-1.68H444.23a26.55,26.55,0,0,1,4.25,14.21c0,.89-.05,1.77-.13,2.65h24.84a8.12,8.12,0,0,0,8-8.19v-.72a8.25,8.25,0,0,0-2.06-5.37A8.6,8.6,0,0,0,478.26,894.94Z" transform="translate(0 -173.32)"/><path class="cls-55" d="M476.78,881h-.17c0,.08,0,.16.05.24Z" transform="translate(0 -173.32)"/><path class="cls-55" d="M292.78,884.29v.06h.12v-.24h82.37v2.65h-.13V887H292.9v6h-.12v.24H399.63a26.39,26.39,0,0,1,44.6,0h33.39c0-1.87,0-3.73-.16-5.59-.08-1.13-.19-2.25-.33-3.38s-.29-2-.47-3.07H459.08a6.53,6.53,0,0,1-5.18-2.89l-7.71-12.05a2.67,2.67,0,0,1,2.65-2.64h21.68c-.25-.25-.25-.49-.49-.73-8.18-13.48-33.95-13-63.58-24.56s-53.94-43.11-86.94-43.11H292.78v89Zm12.89-28.35c0-.05,0-.09,0-.13s0-.09,0-.13a2.17,2.17,0,0,1,2.16-2.16h7.47a2.17,2.17,0,0,1,2.17,2.16c0,.06,0,.11,0,.17v.08a2.17,2.17,0,0,1-2.16,2.17h-7.47A2.18,2.18,0,0,1,305.67,855.94Zm42.14,17.33H306.87V871.1h40.94ZM336.13,806.8a19,19,0,0,1,10.76,3.29,19.26,19.26,0,0,1,3.09,2.49l19.26,19h1.69v.24h.29a6.48,6.48,0,0,1,6.45,6.51,7.71,7.71,0,0,1-1.68,4.81,7.24,7.24,0,0,1-1.69,1.21,3.59,3.59,0,0,1-2.41.72H306.15l0-.24h-.46l-3.61-38.05Z" transform="translate(0 -173.32)"/><path class="cls-56" d="M476.66,881.22c0-.08,0-.16-.05-.24a58.65,58.65,0,0,0-5.73-17.1H449.2a2.67,2.67,0,0,0-2.65,2.65l7.71,12a5.54,5.54,0,0,0,1.4,1.53,5.61,5.61,0,0,0,3.42,1.12Z" transform="translate(0 -173.32)"/><path class="cls-54" d="M369.21,831.81l0,0h0l5.3,5.3,0,.05.2.19a4.58,4.58,0,0,1,.5,5.78l.23-.24a6.14,6.14,0,0,0,1.92-4.57v-.05a6.48,6.48,0,0,0-6.5-6.46v-.24H369Z" transform="translate(0 -173.32)"/><polygon class="cls-54" points="375.14 713.44 375.26 713.44 375.26 710.79 292.9 710.79 292.9 711.03 292.9 713.44 375.14 713.44"/><path class="cls-54" d="M374.69,843.85a4.23,4.23,0,0,0,.59-.69,4.58,4.58,0,0,0-.5-5.78l-.2-.19-5.34-5.1H358.89a6.61,6.61,0,0,0-4.58,1.92,6.19,6.19,0,0,0-1.9,3.93v0a3.93,3.93,0,0,0,0,.49,6.48,6.48,0,0,0,6.45,6.39h-1.71a6.8,6.8,0,0,0,1.76.24h12a6.66,6.66,0,0,0,3.13-.72A4,4,0,0,0,374.69,843.85Z" transform="translate(0 -173.32)"/><path class="cls-57" d="M358.84,844.85h.05" transform="translate(0 -173.32)"/><path class="cls-56" d="M306.12,844.85h52.72a6.48,6.48,0,0,1-6.45-6.39v-.11c0-.13,0-.26,0-.38v0a6.59,6.59,0,0,1,1.9-4.17,6.23,6.23,0,0,1,4.58-1.93h10.35l0,0-19.59-19.47a19.06,19.06,0,0,0-13.49-5.54H302.05l3.61,38.05Z" transform="translate(0 -173.32)"/><polygon class="cls-56" points="306.87 697.78 306.87 699.95 306.87 699.95 347.57 699.95 347.57 699.95 347.57 697.78 306.87 697.78"/><path class="cls-54" d="M307.83,857.85h7.48a2.17,2.17,0,0,0,2.15-2c0-.06,0-.11,0-.17a2.17,2.17,0,0,0-2.17-2.16h-7.47a2.17,2.17,0,0,0-2.16,2.16s0,.08,0,.13A2.17,2.17,0,0,0,307.83,857.85Z" transform="translate(0 -173.32)"/><path class="cls-55" d="M188.82,893a26.26,26.26,0,0,1,34.51-8.91h69.45V795H250.87c-19.26,0-26.73-.49-36.84,6.74,2,6.88-1.05,20.64-9.41,31.37A44,44,0,0,1,198,840a56.68,56.68,0,0,1-16.53,9.6c-.7,4.75-1.17,9.49-1.41,14h1l.44,0h.09a5.74,5.74,0,0,1,3.46,1.61l.06.05v0h0a5,5,0,0,1,1.67,4.08v8.91h0a5.85,5.85,0,0,1-5.78,5.78h-.24c0,.06,0,.12,0,.18.09,1.13.21,2.25.35,3.36.22,1.8.49,3.59.83,5.37h6.83Zm43.89-34.92h-7.36a2.12,2.12,0,0,1-.44-.05l-.14,0c-.09,0-.18,0-.27-.09l-.14-.08a1.55,1.55,0,0,1-.22-.12l-.14-.11a1.3,1.3,0,0,1-.18-.15l-.12-.14-.15-.18-.09-.17a1.86,1.86,0,0,1-.1-.2c0-.06,0-.13-.07-.19l-.06-.22c0-.06,0-.13,0-.2a1.8,1.8,0,0,1,0-.22h0a1.5,1.5,0,0,1,0-.22c0-.07,0-.14,0-.21l.06-.21c0-.06,0-.13.07-.19a1.86,1.86,0,0,1,.1-.2l.09-.17.15-.18.12-.14a1.37,1.37,0,0,1,.18-.16l.14-.11.22-.12.14-.08.27-.08.14,0a2.12,2.12,0,0,1,.44,0h7.34a2.17,2.17,0,0,1,2.18,2.16H235a2.17,2.17,0,0,1-2.17,2.17Zm41.4,15.17h-40.7V871.1h40.7ZM220.89,834l6-16.37a16.63,16.63,0,0,1,15.41-10.84h46V807h0l-8.18,37.57v.24H228.36a8,8,0,0,1-2.56-.48,8.07,8.07,0,0,1-1.92-1,7.76,7.76,0,0,1-3.52-6.53A7.64,7.64,0,0,1,220.89,834Z" transform="translate(0 -173.32)"/><path class="cls-55" d="M292.9,887v-.24H227.37a26.73,26.73,0,0,1,5.74,6.26H292.9Z" transform="translate(0 -173.32)"/><path class="cls-54" d="M292.66,886.76v-2.65H223.33a26.53,26.53,0,0,1,4,2.65h65.29Z" transform="translate(0 -173.32)"/><path class="cls-56" d="M223.88,843.33a7.78,7.78,0,0,0,4.23,1.28h52L288.32,807h0v-.24h-46a16.63,16.63,0,0,0-15.41,10.84l-6,16.37a7.64,7.64,0,0,0-.53,2.79A7.76,7.76,0,0,0,223.88,843.33Z" transform="translate(0 -173.32)"/><rect class="cls-56" x="233.41" y="697.78" width="40.7" height="2.17"/><path class="cls-54" d="M234.87,855.93h0a2.17,2.17,0,0,0-2.18-2.16h-7.34a2.12,2.12,0,0,0-.44,0l-.14,0-.27.08-.14.08-.22.12-.14.11a1.37,1.37,0,0,0-.18.16l-.12.14-.15.18-.09.17a1.86,1.86,0,0,0-.1.2c0,.06,0,.13-.07.19l-.06.21c0,.07,0,.14,0,.21a1.5,1.5,0,0,0,0,.22h0a1.79,1.79,0,0,0,0,.23c0,.07,0,.14,0,.2l.06.22c0,.06,0,.13.07.19a1.86,1.86,0,0,0,.1.2l.09.17.15.18.12.14a1.3,1.3,0,0,0,.18.15l.14.11a1.55,1.55,0,0,0,.22.12l.14.08c.09,0,.18.06.27.09l.14,0a2.12,2.12,0,0,0,.44.05h7.36A2.18,2.18,0,0,0,234.87,855.93Z" transform="translate(0 -173.32)"/><path class="cls-56" d="M204.62,833.11c8.27-10.77,11.24-24.29,9.29-31.13-5.06,3.37-10.6,9.15-18.55,17.34s-12,19.27-14,30.35l.09,0A56.68,56.68,0,0,0,198,840,44,44,0,0,0,204.62,833.11Z" transform="translate(0 -173.32)"/><path class="cls-56" d="M186.81,878.33h0v-8.91a5,5,0,0,0-1.67-4.08h0v0l-.06-.05a5.84,5.84,0,0,0-3.46-1.61h-.09a4.1,4.1,0,0,0-.49,0h-1a170.66,170.66,0,0,0,.72,20.47H181A5.85,5.85,0,0,0,186.81,878.33Z" transform="translate(0 -173.32)"/><circle class="cls-34" cx="421.99" cy="907.71" r="13.73" transform="matrix(1, -0.04, 0.04, 1, -32.09, -157.7)"/><path class="cls-58" d="M444.23,893.26a26.39,26.39,0,0,0-44.6,0,26.39,26.39,0,0,0-4.13,14.21,26,26,0,0,0,.13,2.65,26.49,26.49,0,0,0,52.72,0c.08-.88.13-1.76.13-2.65A26.55,26.55,0,0,0,444.23,893.26Zm-36,14.45A13.73,13.73,0,1,1,422,921.44,13.73,13.73,0,0,1,408.26,907.71Z" transform="translate(0 -173.32)"/><circle class="cls-34" cx="211.02" cy="907.71" r="13.73" transform="translate(-56 -158.45) rotate(-3.56)"/><path class="cls-58" d="M233.11,893a26.93,26.93,0,0,0-9.78-8.91h0A26.26,26.26,0,0,0,188.82,893a26.26,26.26,0,0,0-4.3,14.45c0,.83,0,1.64.12,2.45a26.49,26.49,0,0,0,52.74.2c.08-.88.13-1.76.13-2.65A26.67,26.67,0,0,0,233.11,893Zm-35.82,14.69A13.73,13.73,0,1,1,211,921.44,13.73,13.73,0,0,1,197.29,907.71Z" transform="translate(0 -173.32)"/></svg>